<?xml version="1.0" standalone="no"?>
<!DOCTYPE svg PUBLIC "-//W3C//DTD SVG 20010904//EN"
 "http://www.w3.org/TR/2001/REC-SVG-20010904/DTD/svg10.dtd">
<svg version="1.0" xmlns="http://www.w3.org/2000/svg"
 width="1254.000000pt" height="1254.000000pt" viewBox="0 0 1254.000000 1254.000000"
 preserveAspectRatio="xMidYMid meet">

<g transform="translate(0.000000,1254.000000) scale(0.100000,-0.100000)"
fill="#000000" stroke="none">
<path d="M4985 9818 c-46 -27 -82 -76 -91 -124 -31 -168 176 -284 298 -167
l28 27 97 -33 c107 -35 166 -68 264 -147 164 -132 298 -392 325 -630 l6 -62
-97 -46 c-246 -116 -412 -279 -531 -521 -62 -126 -102 -257 -111 -362 l-6 -73
34 0 c55 1 173 20 183 30 6 6 16 34 23 62 16 64 80 201 124 264 82 119 219
239 344 302 142 70 283 102 461 102 282 0 504 -96 695 -298 98 -105 161 -209
206 -340 17 -51 33 -95 35 -98 7 -6 208 -31 213 -25 20 20 -24 234 -74 362
-58 149 -129 257 -241 370 -103 105 -194 169 -328 231 -48 23 -88 42 -90 43
-2 2 4 42 12 89 72 381 306 663 629 757 l78 22 27 -26 c100 -95 272 -37 298
101 9 49 -11 121 -44 156 -86 92 -225 69 -297 -48 -6 -10 -44 -25 -93 -36
-274 -65 -500 -257 -646 -548 -48 -94 -102 -257 -117 -350 l-12 -73 -61 8
c-69 9 -290 11 -381 3 l-60 -5 -12 68 c-69 378 -278 684 -568 830 -45 23 -181
67 -246 81 -17 4 -31 16 -39 36 -33 80 -154 115 -235 68z"/>
<path d="M5303 7403 c9 -2 23 -2 30 0 6 3 -1 5 -18 5 -16 0 -22 -2 -12 -5z"/>
<path d="M5438 7403 c12 -2 32 -2 45 0 12 2 2 4 -23 4 -25 0 -35 -2 -22 -4z"/>
<path d="M7398 7392 c8 -5 13 -13 12 -18 -1 -5 13 -15 31 -22 28 -12 31 -11
26 2 -4 11 -1 16 11 17 14 0 14 2 -3 8 -33 14 -92 23 -77 13z"/>
<path d="M5145 7378 c-16 -5 -37 -12 -45 -14 -13 -5 -13 -6 0 -14 23 -15 60
-12 67 6 3 9 15 20 27 24 20 8 20 9 1 9 -11 -1 -33 -5 -50 -11z"/>
<path d="M5720 7346 c14 -9 21 -15 16 -16 -5 0 2 -9 16 -19 15 -12 38 -19 62
-18 l37 1 -53 27 c-29 14 -64 29 -78 33 l-25 7 25 -15z m60 -26 c8 -5 11 -10
5 -10 -5 0 -17 5 -25 10 -8 5 -10 10 -5 10 6 0 17 -5 25 -10z"/>
<path d="M7590 7330 c10 -6 11 -10 3 -10 -19 0 -16 -27 4 -34 10 -4 22 -1 28
8 8 10 16 11 28 5 9 -6 17 -8 17 -5 0 7 -76 46 -87 46 -4 0 -1 -5 7 -10z"/>
<path d="M4960 7300 c-9 -6 -10 -10 -3 -10 6 0 15 5 18 10 8 12 4 12 -15 0z"/>
<path d="M5915 7232 c3 -40 4 -42 20 -42 8 0 15 7 15 16 0 8 5 12 10 9 23 -14
8 5 -19 24 l-28 20 2 -27z"/>
<path d="M7743 7243 c4 -6 3 -13 -2 -15 -5 -1 2 -12 17 -22 14 -11 22 -13 17
-6 -6 10 -4 12 8 7 26 -10 20 -1 -15 24 -17 13 -29 18 -25 12z"/>
<path d="M4844 7218 l-19 -23 23 19 c21 18 27 26 19 26 -2 0 -12 -10 -23 -22z"/>
<path d="M6632 7206 c-33 -28 -37 -53 -10 -62 10 -3 21 -16 24 -28 5 -21 34
-33 34 -15 0 5 7 6 15 3 9 -4 15 0 15 10 0 10 -6 13 -15 10 -14 -6 -20 7 -16
30 1 5 -4 13 -10 17 -10 6 -10 11 0 23 10 12 10 16 2 16 -7 0 -9 5 -6 10 10
17 -2 11 -33 -14z"/>
<path d="M5597 7205 c-8 -8 -17 -11 -21 -8 -3 3 -9 -3 -13 -13 -9 -25 -35 -44
-48 -36 -16 10 -36 11 -30 1 7 -10 -17 -15 -95 -23 -37 -4 -50 -2 -40 4 12 8
11 10 -7 10 -13 0 -23 -6 -23 -14 0 -8 -6 -16 -12 -19 -7 -2 -4 -2 7 0 47 11
254 14 302 5 38 -7 51 -6 45 2 -3 6 -5 19 -4 29 2 9 -4 20 -12 23 -9 3 -16 17
-16 30 0 27 -12 31 -33 9z"/>
<path d="M7191 7201 c-9 -6 -12 -19 -8 -40 6 -30 6 -31 -32 -31 -21 0 -53 7
-71 16 -31 16 -33 16 -49 -4 -9 -11 -25 -22 -36 -24 -11 -2 34 -2 100 0 87 3
139 0 189 -12 75 -18 104 -14 36 4 -23 6 -39 14 -36 18 6 6 -62 82 -74 82 -3
0 -11 -4 -19 -9z"/>
<path d="M5994 7192 c4 -6 -2 -20 -14 -32 -21 -21 -26 -45 -12 -54 4 -3 22 8
39 24 23 21 33 26 42 17 6 -6 11 -8 11 -5 0 3 -17 18 -37 34 -20 15 -33 22
-29 16z"/>
<path d="M4764 7148 l-19 -23 23 19 c12 11 22 21 22 23 0 8 -8 2 -26 -19z"/>
<path d="M5120 7159 c0 -6 -7 -9 -15 -6 -18 8 -31 -11 -17 -25 7 -7 17 -3 31
11 23 23 26 31 11 31 -5 0 -10 -5 -10 -11z"/>
<path d="M6825 7090 c-7 -11 22 -26 32 -16 4 3 1 6 -6 6 -7 0 -9 5 -6 10 3 6
2 10 -4 10 -5 0 -13 -5 -16 -10z"/>
<path d="M5131 7063 c5 -14 4 -25 -3 -29 -7 -4 -8 -3 -4 4 4 7 2 12 -3 12 -6
0 -11 -4 -11 -8 0 -20 15 -20 51 -1 40 20 53 36 22 25 -16 -5 -16 -4 1 8 16
13 15 15 -22 13 -37 -1 -39 -3 -31 -24z"/>
<path d="M6110 7086 c0 -2 8 -10 18 -17 15 -13 16 -12 3 4 -13 16 -21 21 -21
13z"/>
<path d="M6696 7081 c-18 -7 -18 -8 -2 -14 9 -4 15 -11 12 -16 -4 -5 -3 -16 0
-24 5 -14 10 -14 42 0 20 8 42 20 47 25 7 8 6 9 -2 4 -7 -4 -23 2 -35 13 -23
22 -32 24 -62 12z"/>
<path d="M5833 7066 c-12 -14 -3 -20 77 -53 32 -12 33 -12 16 2 -12 9 -15 15
-7 15 26 0 4 22 -34 36 -22 7 -40 14 -40 13 0 0 -5 -6 -12 -13z"/>
<path d="M7455 7048 c11 -6 40 -25 65 -42 25 -16 39 -23 33 -15 -7 9 -11 18
-8 21 12 11 -37 41 -72 44 -32 2 -35 1 -18 -8z m65 -19 l25 -20 -32 16 c-18 8
-33 18 -33 20 0 10 16 4 40 -16z"/>
<path d="M6448 7020 c-33 -26 -35 -36 -8 -50 28 -15 47 6 40 43 l-5 29 -27
-22z"/>
<path d="M7870 7022 c0 -9 9 -23 20 -30 21 -13 23 -10 14 26 -7 26 -34 30 -34
4z"/>
<path d="M6149 7002 c-6 -17 -17 -33 -25 -36 -8 -3 -14 -12 -14 -20 0 -7 -8
-17 -17 -21 -16 -6 -15 -9 10 -31 33 -28 45 -25 45 12 0 28 43 77 58 66 5 -4
2 0 -8 9 -9 9 -15 19 -12 21 2 3 -2 11 -11 18 -13 11 -17 8 -26 -18z"/>
<path d="M5010 6970 c-14 -14 -32 -34 -40 -45 -13 -17 -13 -18 0 -10 8 6 17
10 20 10 3 0 19 10 35 23 19 14 23 20 10 15 -18 -6 -18 -5 -6 10 22 28 8 26
-19 -3z m10 -14 c0 -2 -8 -10 -17 -17 -16 -13 -17 -12 -4 4 13 16 21 21 21 13z"/>
<path d="M4615 6938 c-14 -29 -14 -30 0 -14 8 11 20 23 26 27 8 4 8 8 0 13 -5
4 -17 -8 -26 -26z"/>
<path d="M7986 6941 c-3 -5 1 -11 9 -14 9 -4 12 -1 8 9 -6 16 -10 17 -17 5z"/>
<path d="M6500 6925 c0 -7 -5 -15 -12 -17 -7 -3 -9 -12 -5 -22 6 -15 9 -15 36
5 33 24 33 34 1 42 -13 3 -20 0 -20 -8z"/>
<path d="M6355 6890 c-13 -25 -13 -30 -1 -30 8 0 16 13 18 30 3 17 3 30 2 30
-2 0 -10 -13 -19 -30z"/>
<path d="M7650 6886 c0 -2 8 -10 18 -17 15 -13 16 -12 3 4 -13 16 -21 21 -21
13z"/>
<path d="M4916 6828 c-14 -19 -16 -19 -11 -4 5 16 3 17 -10 6 -12 -10 -13 -15
-4 -21 9 -5 7 -13 -5 -30 -9 -13 -16 -18 -16 -11 0 7 -4 10 -10 7 -6 -4 -5
-11 2 -19 12 -13 20 -3 72 82 12 21 -1 13 -18 -10z"/>
<path d="M4551 6802 c-7 -17 -11 -37 -8 -44 4 -8 6 -6 6 5 1 10 10 21 21 25
18 7 19 10 7 26 -13 17 -14 17 -26 -12z"/>
<path d="M6290 6785 c-14 -7 -29 -11 -35 -8 -5 2 3 -7 18 -21 36 -33 48 -33
78 2 13 15 20 24 15 19 -5 -4 -19 -1 -31 7 -17 11 -25 12 -45 1z"/>
<path d="M7998 6773 c-21 -5 -27 -22 -21 -56 5 -25 28 -35 67 -28 5 1 19 -8
32 -20 17 -16 24 -18 23 -8 -1 23 -14 50 -24 50 -6 0 -9 15 -7 34 3 33 1 35
-25 34 -15 -1 -35 -3 -45 -6z"/>
<path d="M4690 6690 c0 -5 5 -10 10 -10 6 0 10 5 10 10 0 6 -4 10 -10 10 -5 0
-10 -4 -10 -10z"/>
<path d="M4507 6653 c-5 -27 9 -47 25 -37 13 8 9 41 -6 53 -11 9 -15 6 -19
-16z"/>
<path d="M7801 6632 c-6 -11 -4 -46 5 -102 l14 -85 -4 70 c-2 39 -2 62 1 53 5
-20 33 -13 33 8 0 8 5 14 10 14 6 0 10 7 10 16 0 8 -4 12 -10 9 -5 -3 -10 -2
-10 4 0 6 -9 15 -20 21 -15 8 -21 7 -29 -8z m6 -34 c-3 -8 -6 -5 -6 6 -1 11 2
17 5 13 3 -3 4 -12 1 -19z"/>
<path d="M7895 6631 c-8 -15 3 -31 21 -31 9 0 14 7 12 17 -4 20 -24 28 -33 14z"/>
<path d="M4810 6584 c0 -15 -2 -16 -9 -5 -15 23 -64 -59 -53 -89 8 -21 9 -21
25 -5 16 15 17 15 18 -12 1 -15 7 6 15 46 7 41 11 77 9 80 -3 2 -5 -4 -5 -15z"/>
<path d="M8084 6475 c-8 -45 3 -108 19 -102 7 2 13 23 15 47 6 82 -21 125 -34
55z"/>
<path d="M7830 6413 c0 -12 -4 -25 -10 -28 -5 -3 -10 -27 -9 -53 1 -38 2 -42
9 -22 4 14 8 19 9 12 1 -7 6 -10 11 -7 13 8 13 85 0 105 -8 12 -10 11 -10 -7z"/>
<path d="M4793 6350 c0 -30 2 -43 4 -27 2 15 2 39 0 55 -2 15 -4 2 -4 -28z"/>
<path d="M7058 6373 c7 -3 16 -2 19 1 4 3 -2 6 -13 5 -11 0 -14 -3 -6 -6z"/>
<path d="M4767 6363 c-11 -10 -8 -43 3 -43 6 0 10 11 10 25 0 26 -2 29 -13 18z"/>
<path d="M5422 6345 c0 -16 2 -22 5 -12 2 9 2 23 0 30 -3 6 -5 -1 -5 -18z"/>
<path d="M6938 6363 c7 -3 16 -2 19 1 4 3 -2 6 -13 5 -11 0 -14 -3 -6 -6z"/>
<path d="M5610 6350 c-22 -13 -5 -23 27 -16 21 6 24 9 12 17 -18 11 -20 11
-39 -1z"/>
<path d="M7157 6353 c-11 -10 -8 -53 3 -53 6 0 10 -8 11 -17 1 -25 28 36 28
62 l0 20 -9 -20 c-7 -17 -9 -17 -9 -2 -1 17 -12 22 -24 10z"/>
<path d="M4495 6338 c-4 -9 -5 -33 -3 -54 l3 -39 14 43 c11 32 12 45 3 54 -8
8 -13 7 -17 -4z"/>
<path d="M6938 6343 c6 -2 18 -2 25 0 6 3 1 5 -13 5 -14 0 -19 -2 -12 -5z"/>
<path d="M5771 6331 c-7 -5 -9 -11 -4 -14 4 -3 17 1 28 9 21 16 0 20 -24 5z"/>
<path d="M7802 6255 c0 -16 2 -22 5 -12 2 9 2 23 0 30 -3 6 -5 -1 -5 -18z"/>
<path d="M6645 6246 c-22 -18 -25 -24 -13 -28 17 -7 60 12 65 28 7 22 -24 22
-52 0z"/>
<path d="M4800 6224 c0 -8 -4 -13 -9 -10 -5 3 -14 -7 -19 -24 -10 -27 -8 -31
18 -50 l28 -20 -5 22 c-4 19 -3 20 7 8 9 -12 10 -10 4 10 -4 14 -10 26 -14 28
-4 1 -5 14 -2 27 2 14 2 25 -2 25 -3 0 -6 -7 -6 -16z"/>
<path d="M5976 6197 c-7 -34 8 -50 33 -37 9 5 24 11 35 14 18 6 18 7 2 25 -10
10 -28 21 -41 23 -19 4 -24 0 -29 -25z"/>
<path d="M5470 6218 c0 -4 8 -21 18 -38 l19 -30 12 26 c14 32 3 54 -15 30 -11
-16 -13 -16 -23 1 -6 10 -11 15 -11 11z"/>
<path d="M7110 6204 c0 -9 5 -12 12 -8 8 5 9 1 4 -12 -5 -14 -4 -16 4 -8 12
12 4 44 -11 44 -5 0 -9 -7 -9 -16z"/>
<path d="M7791 6194 c0 -11 3 -14 6 -6 3 7 2 16 -1 19 -3 4 -6 -2 -5 -13z"/>
<path d="M7811 6198 c0 -9 -4 -25 -7 -35 -5 -14 -4 -15 5 -7 7 7 11 22 8 35
-2 13 -5 16 -6 7z"/>
<path d="M7781 6163 c-1 -6 -4 -20 -7 -30 -5 -17 -5 -17 6 0 6 10 9 23 6 30
-3 9 -5 9 -5 0z"/>
<path d="M8077 6159 c-9 -6 -17 -15 -17 -20 0 -6 -12 -26 -27 -46 -20 -26 -24
-39 -17 -51 16 -25 41 -22 53 7 11 27 31 114 28 117 -1 2 -10 -2 -20 -7z"/>
<path d="M7031 6076 c-12 -14 -11 -16 7 -13 12 2 25 7 29 12 5 4 3 5 -4 2 -6
-4 -13 -2 -15 4 -2 7 -9 5 -17 -5z"/>
<path d="M4535 6048 c4 -18 14 -46 22 -61 12 -24 17 -26 29 -16 19 16 11 50
-18 84 -29 34 -41 31 -33 -7z"/>
<path d="M4850 6068 c0 -11 30 -78 35 -78 3 0 -2 17 -10 37 -15 36 -25 52 -25
41z"/>
<path d="M6126 6048 c-9 -12 -16 -37 -16 -56 0 -30 2 -33 27 -30 40 4 60 48
37 83 -20 31 -28 31 -48 3z"/>
<path d="M6446 6041 c-20 -38 -10 -57 18 -36 15 11 16 19 9 42 l-10 28 -17
-34z"/>
<path d="M7732 6035 c-17 -37 -14 -45 4 -12 9 16 14 31 11 33 -2 2 -9 -7 -15
-21z"/>
<path d="M7872 5990 c-16 -26 -15 -37 2 -37 9 0 14 10 14 29 -1 15 -2 28 -2
28 -1 0 -7 -9 -14 -20z"/>
<path d="M5646 5991 c-8 -12 71 -80 92 -79 10 0 26 -3 37 -7 17 -7 16 -4 -5
17 -14 13 -29 24 -35 24 -5 -1 -10 10 -10 24 0 22 -5 25 -37 28 -20 2 -39 -1
-42 -7z m69 -55 c6 -4 1 -4 -10 2 -11 6 -29 21 -40 34 -19 22 -19 22 10 -2 17
-14 35 -29 40 -34z"/>
<path d="M6923 5983 c-18 -7 -16 -30 2 -37 8 -3 14 0 12 7 -1 7 6 12 15 12 9
0 20 4 25 9 4 5 3 6 -4 2 -7 -4 -13 -2 -13 3 0 11 -16 13 -37 4z"/>
<path d="M7910 5980 c-11 -7 -9 -14 14 -35 16 -14 31 -23 35 -19 3 4 0 9 -6
11 -7 3 -13 13 -13 23 0 24 -12 31 -30 20z"/>
<path d="M4896 5967 c3 -10 9 -15 12 -12 3 3 0 11 -7 18 -10 9 -11 8 -5 -6z"/>
<path d="M7651 5893 c-19 -27 -25 -40 -14 -30 11 9 23 14 27 10 4 -4 4 0 0 10
-4 13 -2 16 9 11 8 -3 18 0 23 7 4 7 2 15 -4 17 -7 2 -10 8 -6 13 3 5 4 9 2 9
-3 0 -19 -21 -37 -47z"/>
<path d="M7986 5911 c-18 -20 -21 -41 -5 -41 5 0 7 -6 3 -12 -4 -9 -4 -10 3
-3 16 17 33 64 24 69 -5 3 -16 -3 -25 -13z"/>
<path d="M6050 5908 c0 -4 9 -8 20 -8 11 0 20 4 20 8 0 4 -9 8 -20 8 -11 0
-20 -4 -20 -8z"/>
<path d="M4940 5890 c6 -11 13 -20 16 -20 2 0 0 9 -6 20 -6 11 -13 20 -16 20
-2 0 0 -9 6 -20z"/>
<path d="M5754 5896 c11 -9 24 -16 30 -16 12 0 7 5 -24 19 -24 11 -24 11 -6
-3z"/>
<path d="M6350 5875 c-29 -40 -51 -51 -61 -33 -4 7 -14 22 -23 33 -15 19 -15
19 -9 -5 3 -14 14 -43 24 -66 18 -39 17 -74 -2 -74 -5 0 -9 -4 -9 -10 0 -24
50 -3 54 22 1 8 9 23 19 32 13 13 21 15 37 6 11 -6 20 -17 20 -24 0 -8 7 -16
14 -19 11 -4 13 -1 9 10 -4 11 -2 14 5 9 8 -5 10 -1 5 10 -4 11 -3 15 5 10 6
-3 14 -2 17 4 4 6 3 9 -2 8 -21 -6 -53 24 -53 50 0 34 -10 72 -19 72 -3 0 -17
-16 -31 -35z"/>
<path d="M6840 5890 c-9 -6 -10 -10 -3 -10 6 0 15 5 18 10 8 12 4 12 -15 0z"/>
<path d="M5949 5863 c-1 -10 -1 -21 -1 -24 1 -3 -11 -4 -26 -2 l-27 3 24 -10
c35 -15 151 -25 131 -11 -12 9 -12 11 -1 11 8 0 -3 11 -23 25 -43 29 -75 33
-77 8z"/>
<path d="M6640 5865 c0 -17 -41 -30 -70 -22 -11 3 -20 2 -20 -3 0 -16 117 -20
161 -5 40 13 40 14 9 9 -26 -4 -31 -3 -20 5 13 9 13 11 -2 11 -10 0 -18 5 -18
10 0 6 -9 10 -20 10 -11 0 -20 -7 -20 -15z"/>
<path d="M4960 5856 c0 -2 8 -10 18 -17 15 -13 16 -12 3 4 -13 16 -21 21 -21
13z"/>
<path d="M7574 5798 l-29 -33 33 29 c30 28 37 36 29 36 -2 0 -16 -15 -33 -32z"/>
<path d="M6558 5813 c12 -2 32 -2 45 0 12 2 2 4 -23 4 -25 0 -35 -2 -22 -4z"/>
<path d="M5030 5766 c0 -2 8 -10 18 -17 15 -13 16 -12 3 4 -13 16 -21 21 -21
13z"/>
<path d="M4678 5733 c13 -21 46 -27 38 -6 -3 8 -6 17 -6 19 0 2 -9 4 -20 4
-17 0 -19 -3 -12 -17z"/>
<path d="M7509 5733 c-13 -16 -12 -17 4 -4 16 13 21 21 13 21 -2 0 -10 -8 -17
-17z"/>
<path d="M7900 5740 c0 -5 5 -10 11 -10 5 0 7 5 4 10 -3 6 -8 10 -11 10 -2 0
-4 -4 -4 -10z"/>
<path d="M6206 5682 c8 -25 14 -57 15 -71 0 -24 1 -24 9 -6 5 11 9 16 10 10 1
-5 5 -1 10 10 13 31 12 95 -2 96 -7 1 -22 3 -34 4 -21 2 -21 1 -8 -43z"/>
<path d="M5100 5685 c13 -14 26 -25 28 -25 3 0 -5 11 -18 25 -13 14 -26 25
-28 25 -3 0 5 -11 18 -25z"/>
<path d="M4721 5670 c28 -38 69 -53 69 -26 0 9 -4 16 -10 16 -5 0 -10 6 -10
14 0 18 -27 29 -33 13 -3 -9 -9 -8 -23 3 -13 10 -11 4 7 -20z"/>
<path d="M7439 5673 c-13 -16 -12 -17 4 -4 16 13 21 21 13 21 -2 0 -10 -8 -17
-17z"/>
<path d="M6391 5644 c0 -11 3 -14 6 -6 3 7 2 16 -1 19 -3 4 -6 -2 -5 -13z"/>
<path d="M7855 5650 c-3 -5 -12 -7 -19 -4 -7 3 -16 -2 -20 -11 -3 -9 -2 -13 4
-10 14 9 12 -8 -2 -24 -9 -10 -10 -12 -1 -7 14 7 57 66 49 66 -3 0 -7 -4 -11
-10z"/>
<path d="M7331 5601 c-21 -16 -21 -19 -6 -24 24 -10 25 -9 25 12 0 11 6 22 13
24 6 3 8 6 2 6 -5 0 -21 -8 -34 -18z"/>
<path d="M5270 5536 c8 -10 15 -27 17 -38 2 -11 10 -26 18 -34 8 -9 15 -19 15
-23 0 -14 38 -9 44 5 3 9 12 12 18 9 7 -4 4 0 -6 9 -10 8 -23 13 -28 10 -5 -3
-7 -1 -6 4 2 6 -17 25 -42 43 -25 18 -38 25 -30 15z"/>
<path d="M6356 5517 c-10 -7 -20 -31 -23 -53 -4 -32 0 -47 20 -78 39 -57 66
-73 107 -65 l35 7 -40 -1 c-39 -2 -40 -1 -47 38 -4 22 -7 60 -8 85 -1 57 -19
85 -44 67z m31 -84 c-3 -10 -5 -2 -5 17 0 19 2 27 5 18 2 -10 2 -26 0 -35z"/>
<path d="M7691 5514 c-10 -12 -10 -19 -2 -27 8 -8 17 -5 34 13 12 13 14 18 4
11 -15 -12 -17 -12 -11 3 8 20 -7 20 -25 0z"/>
<path d="M4766 5495 c-9 -14 -21 -36 -26 -50 -10 -25 -9 -25 18 -11 21 11 27
21 27 50 0 20 -1 36 -1 36 -1 0 -9 -11 -18 -25z"/>
<path d="M7130 5489 c-19 -11 -26 -17 -15 -13 11 4 30 7 42 7 14 -1 20 4 16
13 -3 8 -6 14 -7 14 0 -1 -17 -10 -36 -21z"/>
<path d="M7570 5420 c0 -5 6 -10 13 -10 6 0 1 -10 -13 -21 -25 -21 -25 -21 -1
-7 27 16 37 48 15 48 -8 0 -14 -4 -14 -10z"/>
<path d="M6858 5393 c7 -3 16 -2 19 1 4 3 -2 6 -13 5 -11 0 -14 -3 -6 -6z"/>
<path d="M6223 5372 c-9 -5 -14 -44 -17 -113 -2 -57 -2 -89 1 -70 2 18 15 45
29 60 24 26 30 63 18 109 -7 24 -12 26 -31 14z"/>
<path d="M6725 5364 l-50 -14 49 6 c54 6 108 23 71 22 -11 0 -42 -6 -70 -14z"/>
<path d="M5543 5353 c-7 -2 -13 -12 -13 -22 0 -14 8 -17 43 -15 64 3 64 3 27
24 -38 21 -39 21 -57 13z m42 -21 c-3 -3 -11 0 -18 7 -9 10 -8 11 6 5 10 -3
15 -9 12 -12z"/>
<path d="M6580 5340 l-35 -7 35 -1 c19 0 49 4 65 8 l30 8 -30 0 c-16 -1 -46
-4 -65 -8z"/>
<path d="M7404 5318 c-19 -20 -19 -21 6 -14 19 5 16 2 -10 -13 -19 -11 -31
-20 -27 -21 9 0 75 34 97 50 13 10 13 11 0 7 -8 -2 -22 -1 -31 4 -12 6 -22 2
-35 -13z"/>
<path d="M4680 5323 c0 -4 -7 -29 -15 -55 -12 -41 -12 -48 0 -48 17 0 48 62
43 86 -3 18 -28 33 -28 17z"/>
<path d="M5028 5298 c-7 -13 -11 -27 -10 -32 2 -4 -5 -14 -15 -22 -10 -8 9 -2
43 14 59 26 60 27 41 45 -27 23 -44 22 -59 -5z"/>
<path d="M5189 5313 c-1 -5 -1 -12 0 -17 1 -5 -5 -6 -14 -3 -8 4 -15 4 -15 1
0 -5 105 -54 115 -54 2 0 2 10 0 21 -5 26 -34 49 -54 41 -9 -3 -12 -1 -7 6 4
7 1 12 -8 12 -9 0 -17 -3 -17 -7z"/>
<path d="M5670 5300 c8 -5 20 -10 25 -10 6 0 3 5 -5 10 -8 5 -19 10 -25 10 -5
0 -3 -5 5 -10z"/>
<path d="M4840 5256 c0 -14 -4 -26 -10 -26 -12 0 -13 -11 0 -30 8 -13 11 -12
24 5 17 23 16 67 -2 73 -7 2 -12 -6 -12 -22z"/>
<path d="M5820 5240 c12 -8 12 -10 1 -10 -11 0 -11 -3 -1 -15 7 -8 19 -15 27
-15 13 0 13 -3 3 -15 -10 -12 -10 -15 1 -16 8 0 5 -4 -6 -9 -16 -7 -13 -9 16
-9 28 -1 38 4 42 18 2 11 0 24 -6 30 -8 8 -6 11 9 12 14 0 11 4 -11 13 -42 19
-95 30 -75 16z"/>
<path d="M5388 5223 c7 -3 16 -2 19 1 4 3 -2 6 -13 5 -11 0 -14 -3 -6 -6z"/>
<path d="M5405 5195 c22 -8 51 -13 65 -13 15 0 5 5 -25 14 -63 17 -94 16 -40
-1z"/>
<path d="M5572 5193 c-6 -2 -10 -9 -6 -14 3 -5 -1 -10 -8 -10 -43 -4 93 -17
172 -17 52 0 85 3 72 5 -12 2 -20 9 -17 14 9 13 -21 22 -50 15 -16 -4 -23 -11
-19 -18 11 -18 -92 -4 -111 15 -9 10 -17 17 -18 16 -1 0 -8 -3 -15 -6z"/>
<path d="M7125 5190 c3 -4 -16 -13 -41 -19 -26 -7 -44 -14 -42 -17 3 -2 31 4
64 14 47 15 55 19 36 24 -12 3 -20 3 -17 -2z"/>
<path d="M6968 5151 c10 -6 3 -10 -23 -15 -20 -4 -35 -9 -32 -12 2 -3 26 1 53
7 38 10 44 14 28 20 -26 10 -42 11 -26 0z"/>
<path d="M4780 5116 c-12 -14 -20 -31 -17 -39 6 -15 -55 -82 -65 -72 -3 4 -9
1 -14 -6 -4 -8 -3 -10 4 -5 14 8 16 -5 4 -19 -4 -6 23 23 62 64 39 40 71 80
72 87 3 22 -20 16 -46 -10z"/>
<path d="M4630 5105 c0 -18 4 -23 15 -19 8 4 15 15 15 25 0 10 -7 19 -15 19
-9 0 -15 -9 -15 -25z"/>
<path d="M6815 5122 c16 -7 10 -11 -32 -17 -29 -4 -72 -4 -95 -1 -30 4 -35 3
-18 -3 24 -8 24 -8 -10 -13 -19 -3 -3 -3 35 -1 78 5 214 30 175 32 -14 1 -36
4 -50 6 -21 5 -22 4 -5 -3z"/>
<path d="M6270 5098 c0 -6 -8 -7 -17 -4 -15 5 -15 4 1 -9 12 -9 38 -14 65 -13
l46 1 -50 7 c-42 5 -45 7 -20 11 l30 4 -27 6 c-16 4 -28 2 -28 -3z"/>
<path d="M6478 5073 c23 -2 61 -2 85 0 23 2 4 4 -43 4 -47 0 -66 -2 -42 -4z"/>
<path d="M4630 4950 c0 -5 5 -10 10 -10 6 0 10 5 10 10 0 6 -4 10 -10 10 -5 0
-10 -4 -10 -10z"/>
</g>
</svg>
